<svg
    xmlns="http://www.w3.org/2000/svg"
    xmlns:cc="http://web.resource.org/cc/"
    xmlns:dc="http://purl.org/dc/elements/1.1/"
    xmlns:rdf="http://www.w3.org/1999/02/22-rdf-syntax-ns#"
    width="100%" 
    height="100%"
    viewBox="0 0 3756 4363"
    version="1.1">
  
  <style type="text/css">
      .content{
        opacity:.75
      }
      .content:hover{
        opacity:1
      }
      .box{
      }
  </style>
   <g id="map_group"> 
    <path id="brainstem_box" class="box" d="M 1455.323 2031.646 C 1454.125 2031.907, 1452.629 2032.742, 1451.998 2033.503 C 1450.694 2035.073, 1450.481 2814.616, 1451.652 3297.832 L 1452.321 3574.164 1454.733 3575.745 C 1456.906 3577.169, 1466.150 3577.256, 1548.322 3576.628 C 1598.470 3576.244, 1761.225 3575.266, 1910 3574.455 C 2401.878 3571.771, 2500.575 3571.100, 2502.324 3570.429 C 2503.276 3570.064, 2504.486 3568.961, 2505.012 3567.978 C 2505.606 3566.867, 2506.339 3458.967, 2506.951 3282.346 C 2507.492 3126.231, 2508.182 2969.250, 2508.484 2933.500 C 2508.786 2897.750, 2509.468 2713.250, 2509.998 2523.500 C 2510.528 2333.750, 2511.227 2146.976, 2511.551 2108.447 C 2512.112 2041.677, 2512.055 2038.294, 2510.320 2036.254 L 2508.500 2034.114 2321 2033.571 C 2217.875 2033.273, 2032.025 2032.797, 1908 2032.513 C 1783.975 2032.229, 1631.875 2031.811, 1570 2031.584 C 1508.125 2031.358, 1456.520 2031.385, 1455.323 2031.646 M 1460.146 2040.889 C 1459.008 2041.609, 1458.911 2163.561, 1459.538 2804.459 C 1460.189 3470.597, 1460.467 3567.242, 1461.738 3567.730 C 1463.338 3568.344, 1932.411 3566.302, 1975 3565.496 C 1989.575 3565.220, 2112.650 3564.497, 2248.500 3563.890 C 2454.622 3562.968, 2495.680 3562.560, 2496.587 3561.425 C 2497.655 3560.087, 2497.803 3529.417, 2499.505 2953.500 C 2499.781 2860, 2500.228 2760.550, 2500.497 2732.500 C 2501.176 2661.847, 2503.252 2054.707, 2502.837 2048.273 L 2502.500 2043.046 2301.500 2042.478 C 2190.950 2042.166, 2004.682 2041.480, 1887.571 2040.955 C 1625.445 2039.779, 1461.937 2039.754, 1460.146 2040.889" stroke="none" fill="#e6539c" fill-rule="evenodd"/>
    <path id="pons" class="content structure" d="M 1715.500 2372.393 C 1655.248 2382.320, 1600.041 2425.070, 1558.007 2494.349 C 1510.444 2572.741, 1484.191 2685.125, 1488.825 2790.500 C 1492.618 2876.765, 1509.818 2948.164, 1542.423 3013 C 1596.332 3120.199, 1682.465 3174.590, 1768.719 3155.902 C 1805.511 3147.931, 1839.150 3128.021, 1871.034 3095.345 C 1886.698 3079.292, 1894.436 3069.653, 1907.438 3050 C 1919.954 3031.082, 1926.052 3020.385, 1934.929 3001.781 C 1964.386 2940.045, 1980.510 2873.119, 1985.529 2791.750 L 1986.192 2781 2022.346 2781.040 C 2042.231 2781.061, 2095.400 2781.492, 2140.500 2781.997 C 2185.600 2782.501, 2282.182 2783.232, 2355.127 2783.621 L 2487.754 2784.328 2488.988 2782.023 C 2490.317 2779.539, 2490.340 2764.508, 2489.138 2683.453 C 2488.573 2645.356, 2488.305 2640.109, 2486.805 2637.822 L 2485.109 2635.237 2350.805 2634.964 C 2276.937 2634.813, 2213.575 2634.607, 2210 2634.505 C 2206.425 2634.402, 2151.911 2634.240, 2088.859 2634.143 C 1999.330 2634.006, 1974.002 2633.697, 1973.235 2632.734 C 1972.695 2632.055, 1970.579 2624.750, 1968.533 2616.500 C 1955.308 2563.171, 1931.781 2509.305, 1905.283 2471.689 C 1889.755 2449.645, 1868.559 2426.518, 1851.500 2413.005 C 1827.154 2393.720, 1798.506 2379.678, 1771.500 2373.790 C 1759.802 2371.240, 1727.404 2370.431, 1715.500 2372.393" stroke="none" fill="#e38cbc" fill-rule="evenodd"/>
    <path id="bs_ssaliv" class="substructure" d="M 2161.880 3021.794 C 2153.988 3025.917, 2150.489 3031.968, 2150.532 3041.422 C 2150.557 3047.135, 2151.087 3049.504, 2153.278 3053.709 C 2156.731 3060.335, 2162.982 3066.350, 2170 3069.798 C 2177.354 3073.411, 2189.286 3073.641, 2195.595 3070.292 C 2211.007 3062.110, 2212.155 3042.995, 2198.080 3028.920 C 2191.090 3021.930, 2184.001 3019, 2174.077 3019 C 2168.522 3019, 2166.218 3019.528, 2161.880 3021.794" stroke="none" fill="#00cd87" fill-rule="evenodd"/>
    <path id="bs_abduc" class="substructure" d="M 2207.500 2488.029 C 2190.535 2490.568, 2174.969 2503.197, 2165.410 2522.179 C 2151.879 2549.047, 2155.225 2582.472, 2173.240 2600.392 C 2180.465 2607.580, 2186.349 2610.725, 2195.502 2612.293 C 2220.347 2616.549, 2246.964 2594.863, 2255.435 2563.464 C 2256.320 2560.184, 2257.321 2552.992, 2257.659 2547.482 C 2259.896 2511.086, 2236.750 2483.651, 2207.500 2488.029" stroke="none" fill="#00c8cf" fill-rule="evenodd"/>
    <path id="bs_vestib" class="substructure" d="M 2419.972 2848.877 C 2383.774 2860.462, 2339.289 2920.417, 2321.486 2981.609 C 2315.493 3002.211, 2313.480 3025.167, 2316.443 3039.144 C 2325.204 3080.478, 2367.759 3070.439, 2407.376 3017.693 C 2441.456 2972.319, 2462.676 2911.829, 2457.082 2876 C 2453.517 2853.175, 2439.212 2842.719, 2419.972 2848.877" stroke="none" fill="#df0000" fill-rule="evenodd"/>
    <path id="bs_trig_a_facialm" class="substructure" d="M 2207 2384.508 C 2195.783 2387.567, 2187.095 2392.853, 2177.472 2402.474 C 2167.418 2412.526, 2163.213 2419.705, 2160.430 2431.565 C 2154.202 2458.113, 2174.613 2479.317, 2202.265 2475.027 C 2220.582 2472.185, 2236.023 2462.437, 2247.025 2446.771 C 2253.932 2436.936, 2256.499 2428.867, 2256.499 2417 C 2256.499 2409.407, 2256.070 2406.572, 2254.362 2402.878 C 2251.261 2396.170, 2245.483 2390.275, 2238.560 2386.759 C 2233.217 2384.044, 2231.317 2383.641, 2222.500 2383.344 C 2215.761 2383.118, 2210.706 2383.497, 2207 2384.508 M 2231.882 2932.381 C 2208.615 2940.695, 2198.041 2972.313, 2208.485 3002.345 C 2219.211 3033.186, 2250.536 3045.286, 2270.885 3026.446 C 2286.418 3012.066, 2291.008 2985.372, 2281.950 2962.095 C 2276.412 2947.864, 2264.185 2935.090, 2253.176 2932.032 C 2248.108 2930.625, 2236.253 2930.819, 2231.882 2932.381" stroke="none" fill="#7fd3d6" fill-rule="evenodd"/>
    <path id="bs_NT" class="substructure" d="M 2028.500 2431.011 C 1996.292 2436.812, 1972.898 2467.310, 1972.898 2503.500 C 1972.898 2523.252, 1978.843 2538.864, 1990.990 2551.010 C 2002.127 2562.147, 2014.976 2567.421, 2030.635 2567.281 C 2058.067 2567.036, 2082.525 2546.635, 2092.156 2515.965 C 2094.181 2509.516, 2094.492 2506.527, 2094.440 2494 C 2094.386 2481.046, 2094.094 2478.638, 2091.701 2471.422 C 2088.966 2463.178, 2083.904 2454.378, 2078.081 2447.745 C 2073.553 2442.588, 2062.670 2435.579, 2055.384 2433.127 C 2048.236 2430.722, 2035.620 2429.729, 2028.500 2431.011 M 2042.748 2688.427 C 2028.442 2693.532, 2016.816 2713.467, 2010.783 2743.237 C 2008.777 2753.131, 2008.506 2757.356, 2008.551 2778 C 2008.595 2798.242, 2008.903 2802.886, 2010.771 2811.500 C 2015.166 2831.763, 2021.179 2845.753, 2029.326 2854.666 C 2035.495 2861.416, 2040.851 2864.267, 2047.488 2864.334 C 2064.390 2864.505, 2079.159 2843.020, 2086.070 2808.208 C 2088.758 2794.667, 2089.730 2768.628, 2088.094 2753.976 C 2086.057 2735.720, 2080.124 2715.462, 2073.789 2705.129 C 2069.900 2698.786, 2062.665 2691.783, 2057.500 2689.363 C 2051.854 2686.717, 2048.191 2686.484, 2042.748 2688.427 M 2191.391 2690.432 C 2180.517 2695.165, 2172.577 2712.116, 2168.407 2739.500 C 2165.901 2755.954, 2165.846 2795.449, 2168.305 2812 C 2172.924 2843.081, 2179.757 2858.710, 2191.227 2864.426 C 2203.894 2870.738, 2215.422 2865.369, 2222.931 2849.659 C 2230.511 2833.800, 2234 2812.061, 2234 2780.693 C 2234 2740.826, 2228.021 2711.274, 2217.310 2698.202 C 2210.881 2690.357, 2199.441 2686.927, 2191.391 2690.432 M 2318.495 3375 C 2318.495 3589.775, 2318.610 3677.637, 2318.750 3570.250 C 2318.890 3462.863, 2318.890 3287.137, 2318.750 3179.750 C 2318.610 3072.363, 2318.495 3160.225, 2318.495 3375 M 2305.491 3231 C 2305.491 3353.925, 2305.608 3404.213, 2305.750 3342.750 C 2305.892 3281.288, 2305.892 3180.713, 2305.750 3119.250 C 2305.608 3057.788, 2305.491 3108.075, 2305.491 3231 M 2304.482 3659 C 2304.482 3715.925, 2304.602 3739.213, 2304.750 3710.750 C 2304.897 3682.287, 2304.897 3635.713, 2304.750 3607.250 C 2304.602 3578.787, 2304.482 3602.075, 2304.482 3659" stroke="none" fill="#ebbf00" fill-rule="evenodd"/>
    <path id="bs_trigs_a_coch" class="substtructure" d="M 2323.467 2274.163 C 2307.483 2288.198, 2300.047 2348.464, 2308.952 2391.797 C 2311.570 2404.534, 2311.188 2405.380, 2299.784 2412.117 C 2287.632 2419.295, 2283.002 2425.647, 2276.908 2443.500 C 2273.489 2453.516, 2273.506 2472.142, 2276.943 2482.828 C 2280.002 2492.337, 2285.560 2500.820, 2294.117 2509.045 C 2297.903 2512.683, 2301 2516.349, 2301 2517.192 C 2301 2518.034, 2299.629 2521.746, 2297.954 2525.441 C 2287.381 2548.758, 2278.860 2597.643, 2273.800 2664 C 2271.815 2690.034, 2272.143 2770.586, 2274.338 2796 C 2279.046 2850.532, 2286.058 2883.949, 2297.211 2905 C 2299.979 2910.225, 2302.976 2916.525, 2303.872 2919 C 2305.366 2923.131, 2305.500 2958.014, 2305.500 3343.890 C 2305.500 3716.574, 2305.670 3764.365, 2307 3765.025 C 2313.262 3768.129, 2314.186 3768.372, 2315.815 3767.345 C 2317.389 3766.352, 2317.533 3739.475, 2318 3358.891 C 2318.275 3134.826, 2318.834 2950.986, 2319.243 2950.358 C 2319.651 2949.729, 2320.021 2944.779, 2320.064 2939.358 C 2320.162 2927.087, 2323.018 2913.173, 2326.348 2908.738 C 2334.954 2897.278, 2343.810 2870.242, 2349.403 2838.355 C 2366.630 2740.147, 2363.418 2591.116, 2342.763 2530.280 C 2340.059 2522.316, 2340.909 2520.144, 2347.650 2517.789 C 2356.004 2514.871, 2365.607 2504.730, 2371.977 2492.096 C 2375.496 2485.117, 2379.101 2472.104, 2379.566 2464.697 C 2379.937 2458.799, 2379.465 2456.270, 2376.019 2445.678 C 2371.048 2430.398, 2368.178 2425.865, 2358.066 2417.315 C 2353.633 2413.567, 2350.004 2409.718, 2350.003 2408.761 C 2350.001 2407.805, 2350.895 2403.755, 2351.989 2399.761 C 2363.273 2358.576, 2357.489 2290.918, 2341.344 2275.250 C 2337.390 2271.413, 2336.484 2271, 2332.017 2271 C 2327.889 2271, 2326.473 2271.524, 2323.467 2274.163 M 2440.120 2808.163 C 2426.920 2810.505, 2418.246 2825.188, 2416.001 2848.986 C 2412.368 2887.518, 2429.420 2930.653, 2451.561 2938.937 C 2460.528 2942.292, 2466.157 2941.255, 2473.350 2934.923 C 2483.033 2926.400, 2487.901 2910.935, 2487.964 2888.500 C 2488.087 2843.925, 2464.241 2803.882, 2440.120 2808.163" stroke="none" fill="#ff0e00" fill-rule="evenodd"/>
    <path id="medulla" class="content structure" d="M 2598.500 2901.067 C 2499.500 2901.426, 2273.150 2901.776, 2095.500 2901.845 L 1772.500 2901.971 1770.096 2904.720 L 1767.692 2907.470 1768.385 2963.985 C 1768.766 2995.068, 1769.490 3051.775, 1769.995 3090 C 1772.286 3263.722, 1772.385 3285.001, 1770.899 3284.987 C 1770.130 3284.980, 1766.575 3284.055, 1763 3282.932 C 1740.009 3275.709, 1705.139 3274.394, 1674.500 3279.595 C 1615.164 3289.668, 1555.542 3322.981, 1519.347 3366.286 C 1447.926 3451.736, 1477.223 3546.776, 1580.500 3564.672 C 1594.461 3567.092, 1628.157 3567.085, 1643.836 3564.659 C 1670.228 3560.577, 1695.418 3552.662, 1720.500 3540.570 C 1749 3526.831, 1768.485 3513.333, 1789.869 3492.515 C 1819.173 3463.987, 1836.998 3433.031, 1842.566 3401 C 1844.770 3388.316, 1844.094 3367.810, 1841.099 3356.500 C 1836.949 3340.834, 1827.849 3325.072, 1815.962 3312.962 L 1810 3306.887 1809.998 3203.694 C 1809.997 3146.937, 1809.698 3062.864, 1809.334 3016.865 L 1808.673 2933.230 1827.086 2932.641 C 1881.133 2930.913, 2445.401 2930.429, 2684.878 2931.906 C 2758.797 2932.362, 2781.362 2932.223, 2781.711 2931.313 C 2782.561 2929.095, 2780.518 2900.662, 2779.500 2900.537 C 2778.950 2900.469, 2697.500 2900.707, 2598.500 2901.067" stroke="none" fill="#f4946c" fill-rule="evenodd"/>
    <path id="bs_Amb" class="substructure" d="M 1878.134 3215.618 C 1876.863 3216.509, 1874.356 3219.546, 1872.563 3222.368 C 1850.545 3257.015, 1841.533 3376.221, 1854.460 3461.796 C 1860.611 3502.508, 1871.935 3526.492, 1883.624 3523.558 C 1887.826 3522.504, 1892.969 3516.910, 1896.433 3509.628 C 1922.464 3454.898, 1925.014 3295.201, 1900.865 3231.962 C 1896.647 3220.915, 1890.310 3214, 1884.406 3214 C 1882.228 3214, 1879.405 3214.728, 1878.134 3215.618" stroke="none" fill="#7fd3d6" fill-rule="evenodd"/>
    <path id="bs_solit" class="substructure" d="M 2436.667 3190.984 C 2429.937 3198.983, 2424.756 3224.438, 2420.790 3269 C 2419.067 3288.363, 2419.067 3375.969, 2420.790 3396.500 C 2425.351 3450.837, 2432.518 3481.618, 2441.388 3484.963 C 2452.563 3489.177, 2461.222 3454.511, 2464.982 3390.500 C 2466.280 3368.401, 2466.279 3314.100, 2464.979 3291.361 C 2462.282 3244.158, 2456.676 3209.160, 2449.563 3195.124 C 2445.613 3187.329, 2440.991 3185.845, 2436.667 3190.984" stroke="none" fill="#df0000" fill-rule="evenodd"/>
    <path id="bs_hypo_a_isaliv" class="substructure" d="M 2174.820 3103.580 C 2171.930 3104.469, 2168.073 3106.909, 2164.737 3109.957 C 2154.685 3119.144, 2149.330 3133.464, 2150.321 3148.500 C 2150.996 3158.733, 2153.088 3165.444, 2157.766 3172.389 C 2164.415 3182.261, 2172.789 3186.660, 2183.146 3185.720 C 2208.312 3183.439, 2221.978 3143.820, 2206.632 3117.635 C 2202.947 3111.347, 2195.663 3105.274, 2189.672 3103.495 C 2183.578 3101.686, 2180.926 3101.701, 2174.820 3103.580 M 2233.771 3224.750 C 2224.069 3235.787, 2218.302 3274.054, 2217.307 3334 C 2216.212 3399.985, 2222.260 3457.910, 2232.677 3481.197 C 2235.705 3487.965, 2237.972 3490.250, 2241.661 3490.250 C 2262.382 3490.250, 2270.355 3345.048, 2254.404 3258.160 C 2251.737 3243.631, 2247.278 3230.672, 2243.332 3225.982 C 2240.444 3222.550, 2236.188 3222.002, 2233.771 3224.750" stroke="none" fill="#00cd87" fill-rule="evenodd"/>
    <path id="bs_dvag" class="substructure" d="M 2366.468 3143.904 C 2363.372 3145.230, 2357.379 3152.318, 2354.424 3158.149 C 2352.969 3161.021, 2350.065 3168.590, 2347.970 3174.969 C 2321.853 3254.503, 2323.341 3441.924, 2350.557 3500.829 C 2357.634 3516.147, 2364.462 3520.915, 2372.998 3516.501 C 2384.477 3510.565, 2395.915 3476.112, 2402.429 3427.847 C 2407.281 3391.896, 2408.428 3372.016, 2408.449 3323.500 C 2408.469 3279.028, 2407.804 3264.546, 2404.407 3235.500 C 2398.781 3187.386, 2388.367 3152.712, 2377.382 3145.515 C 2374.275 3143.479, 2369.207 3142.731, 2366.468 3143.904" stroke="none" fill="#04ccb1" fill-rule="evenodd"/>
    <path id="basalganglia_box" class="box" d="M 959.552 1327.250 C 958.702 1330.009, 958.003 1959.884, 958.850 1960.407 C 959.341 1960.711, 1061.388 1961.207, 1185.622 1961.511 C 1309.855 1961.814, 1467.172 1962.226, 1535.215 1962.426 C 1627.314 1962.697, 1659.160 1962.497, 1659.830 1961.645 C 1660.357 1960.975, 1660.976 1829.699, 1661.321 1645.336 C 1661.824 1377.159, 1661.705 1330, 1660.523 1329.019 C 1659.487 1328.160, 1580.766 1327.639, 1350.317 1326.970 C 937.821 1325.771, 960.013 1325.755, 959.552 1327.250 M 966.538 1333.287 C 966.334 1333.954, 965.894 1474.152, 965.561 1644.838 L 964.956 1955.176 977.228 1954.844 C 983.978 1954.662, 1138.938 1954.917, 1321.584 1955.411 L 1653.668 1956.310 1654.333 1844.405 C 1654.699 1782.857, 1654.999 1642.893, 1655 1533.373 L 1655 1334.247 1453.250 1333.642 C 1342.287 1333.309, 1187.467 1332.820, 1109.204 1332.556 C 998.223 1332.180, 966.827 1332.341, 966.538 1333.287" stroke="none" fill="#e5c40c" fill-rule="evenodd"/>
    <path id="basalganglia_content" class="content" d="M 1310 1347.617 C 1306.425 1347.822, 1296.709 1348.665, 1288.409 1349.490 C 1164.277 1361.825, 1055.010 1433.167, 1005.048 1534.500 C 975.438 1594.553, 968.574 1656.038, 984.506 1718.500 C 993.333 1753.106, 1011.220 1788.165, 1035.272 1818 C 1053.233 1840.280, 1082.164 1865.674, 1108.164 1881.983 C 1179.673 1926.837, 1274.337 1943.732, 1362.805 1927.432 C 1451.011 1911.179, 1527.688 1867.101, 1580.133 1802.500 C 1631.765 1738.900, 1654.069 1659.734, 1641.411 1585 C 1637.225 1560.286, 1629.984 1537.989, 1618.514 1514.500 C 1605.369 1487.582, 1591.026 1467.347, 1569 1444.648 C 1517.049 1391.109, 1445.953 1358.013, 1364.710 1349.551 C 1349.796 1347.997, 1321.053 1346.981, 1310 1347.617" stroke="none" fill="#ec74f4" fill-rule="evenodd"/>
    <path id="cerebellum_box" class="box" d="M 2827.046 2240.750 C 2749.279 2240.923, 2710.252 2241.348, 2709.568 2242.032 C 2708.044 2243.556, 2708.792 3155.016, 2710.318 3156.871 C 2711.271 3158.030, 2771.140 3158.191, 3095.973 3157.908 C 3307.463 3157.724, 3481.287 3157.204, 3482.250 3156.752 C 3483.913 3155.971, 3484 3133.199, 3484 2699.165 C 3484 2345.237, 3483.730 2242.130, 3482.800 2241.200 C 3481.647 2240.047, 3223.807 2239.870, 2827.046 2240.750 M 2969.249 2248.752 L 2714.998 2249.004 2715.249 2699.252 L 2715.500 3149.500 2919 3149.429 C 3030.925 3149.390, 3202.492 3149.277, 3300.261 3149.179 L 3478.022 3149 3477.965 2710.250 C 3477.934 2468.938, 3477.636 2266.191, 3477.303 2259.702 L 3476.698 2247.904 3350.099 2248.202 C 3280.470 2248.366, 3109.087 2248.613, 2969.249 2248.752" stroke="none" fill="#f49979" fill-rule="evenodd"/>
    <path id="cerebellum_cortex" class="content structure" d="M 3041.500 2519.521 C 3004.812 2525.440, 2968.912 2544.749, 2939.481 2574.394 C 2864.247 2650.172, 2842.369 2776.212, 2887.909 2871.500 C 2927.591 2954.529, 3008.159 2992.635, 3088.500 2966.373 C 3099.634 2962.734, 3119.261 2953.255, 3129.718 2946.467 C 3165.623 2923.160, 3196.494 2885.976, 3215.468 2843.180 C 3251.839 2761.148, 3246.555 2662.944, 3202.167 2596 C 3175.424 2555.668, 3139.374 2530.030, 3096 2520.496 C 3085.364 2518.159, 3053.482 2517.588, 3041.500 2519.521" stroke="none" fill="#ad92da" fill-rule="evenodd"/>
    <path id="cerebellum_nuclei" class="content structure" d="M 3071 2273.043 C 3026.215 2277.273, 2983.091 2288.533, 2938.580 2307.620 C 2915.283 2317.610, 2909.008 2321.530, 2907.691 2326.917 C 2906.344 2332.426, 2917.238 2406.556, 2920.646 2415.074 C 2921.558 2417.354, 2923.378 2419.656, 2924.874 2420.422 C 2929.516 2422.799, 2938.855 2423.217, 2951.500 2421.613 C 2979.891 2418.011, 3027.720 2416.819, 3055.605 2419.016 C 3127.324 2424.669, 3186.616 2445.409, 3230 2480.019 C 3240.622 2488.492, 3259.706 2508.031, 3267.290 2518.197 C 3342.101 2618.477, 3323.994 2779.928, 3218.135 2956.500 C 3205.738 2977.178, 3179.284 3017, 3177.945 3017 C 3177.375 3017, 3175.805 3018.105, 3174.455 3019.455 C 3170.196 3023.713, 3171.017 3028.261, 3177.818 3038.091 C 3181.018 3042.716, 3185.151 3049.350, 3187.002 3052.834 C 3188.955 3056.509, 3192.558 3061.127, 3195.585 3063.834 C 3201.329 3068.973, 3213.646 3085.989, 3220.154 3097.779 C 3222.450 3101.939, 3226.505 3107.745, 3229.164 3110.682 C 3231.824 3113.618, 3234 3116.415, 3234 3116.897 C 3234 3117.378, 3235.603 3118.533, 3237.562 3119.462 C 3240.393 3120.806, 3241.751 3120.934, 3244.184 3120.086 C 3252.715 3117.112, 3306.176 3066.070, 3326.960 3041.055 C 3391.424 2963.469, 3435.491 2871.653, 3454.413 2775.500 C 3468.921 2701.775, 3467.680 2624.907, 3450.880 2556.659 C 3423.822 2446.735, 3357.706 2358.551, 3266.707 2311.010 C 3230.420 2292.052, 3193.648 2280.536, 3150 2274.461 C 3136.422 2272.570, 3085.649 2271.659, 3071 2273.043" stroke="none" fill="#bcec04" fill-rule="evenodd"/>
    <path id="cerebrum_box" class="box" d="M 173.953 11.971 C 145.568 12.559, 143.861 12.944, 142.643 19.035 C 142.294 20.779, 142.209 22.529, 142.453 22.924 C 142.899 23.646, 143.104 75.475, 144.926 649 C 145.470 820.325, 146.158 1014.725, 146.455 1081 C 146.753 1147.275, 147.289 1270.948, 147.647 1355.828 C 148.202 1487.301, 148.509 1510.366, 149.721 1511.578 C 150.792 1512.650, 154.267 1513.017, 163.821 1513.070 C 170.795 1513.108, 201.475 1513.326, 232 1513.554 C 262.525 1513.781, 570.775 1514.635, 917 1515.450 C 1263.225 1516.266, 1571.025 1517.172, 1601 1517.464 C 1630.975 1517.756, 1781.500 1518.222, 1935.500 1518.499 C 2089.500 1518.776, 2254.875 1519.226, 2303 1519.499 C 2351.125 1519.772, 2527.975 1520.227, 2696 1520.510 C 2864.025 1520.793, 3029.850 1521.238, 3064.500 1521.498 C 3099.150 1521.758, 3233.758 1522.270, 3363.629 1522.635 L 3599.759 1523.298 3601.497 1520.644 C 3603.082 1518.225, 3603.180 1515.623, 3602.598 1491.245 C 3602.247 1476.535, 3601.513 1299.350, 3600.968 1097.500 C 3600.423 895.650, 3599.540 638.250, 3599.007 525.500 C 3598.473 412.750, 3597.934 257.275, 3597.810 180 C 3597.686 102.725, 3597.414 36.447, 3597.205 32.716 C 3596.886 26.993, 3596.470 25.699, 3594.549 24.440 C 3590.525 21.804, 3522.524 21.064, 3235.356 20.533 C 3084.735 20.255, 2912 19.801, 2851.500 19.524 C 2664.165 18.669, 2325.307 17.685, 1637 15.999 C 1427.175 15.485, 1215.450 14.817, 1166.500 14.516 C 1117.550 14.214, 882.200 13.522, 643.500 12.977 C 404.800 12.433, 207.250 11.865, 204.500 11.715 C 201.750 11.565, 188.004 11.680, 173.953 11.971 M 153.175 178.750 C 153.278 265.513, 153.687 421.775, 154.084 526 C 155.726 957.409, 156.967 1313.200, 157.140 1401.500 C 157.241 1453.200, 157.517 1497.358, 157.755 1499.629 L 158.187 1503.757 264.343 1504.363 C 322.730 1504.697, 477.600 1505.208, 608.500 1505.500 C 739.400 1505.791, 878.675 1506.242, 918 1506.500 C 957.325 1506.758, 1096.825 1507.202, 1228 1507.485 C 1829.551 1508.786, 1932.699 1509.045, 2040 1509.525 C 2102.975 1509.806, 2224.700 1510.244, 2310.500 1510.498 C 2396.300 1510.751, 2540.525 1511.192, 2631 1511.478 C 2721.475 1511.764, 2920.150 1512.224, 3072.500 1512.500 C 3224.850 1512.776, 3404.005 1513.275, 3470.623 1513.607 L 3591.746 1514.212 3592.478 1504.447 C 3592.881 1499.076, 3592.940 1464.716, 3592.609 1428.091 C 3592.278 1391.466, 3591.768 1242.250, 3591.476 1096.500 C 3591.185 950.750, 3590.523 743.975, 3590.006 637 C 3589.490 530.025, 3588.794 351.825, 3588.460 241 C 3588.126 130.175, 3587.623 38.530, 3587.342 37.345 C 3586.704 34.656, 3585.450 34.415, 3562.500 32.574 C 3544.381 31.121, 3541.203 31.089, 3250.500 29.505 C 3199.900 29.229, 3029.800 28.773, 2872.500 28.490 C 2715.200 28.208, 2525.075 27.757, 2450 27.487 C 2096.179 26.218, 1780.062 25.247, 1477 24.500 C 1064.886 23.484, 860.834 22.876, 622 21.954 C 487.525 21.435, 326.985 21.008, 265.244 21.005 L 152.988 21 153.175 178.750" stroke="none" fill="#8c76dd" fill-rule="evenodd"/>
    <path id="cerebrum_content" class="content structure" d="M 1814.500 39.135 C 1734.209 40.494, 1622.531 45.918, 1548.500 52.055 C 1168.438 83.560, 833.653 163.104, 584.792 281.030 C 448.327 345.695, 341.576 421.160, 271.505 502.500 C 242.169 536.553, 215.535 578.363, 201.431 612.500 C 143.816 751.955, 189.583 891.227, 335 1018.956 C 503.012 1166.533, 807.221 1288.710, 1173 1355.516 C 1341.095 1386.216, 1516.681 1405.734, 1694 1413.429 C 1832.341 1419.433, 2006.690 1418.432, 2117.500 1410.998 C 2125.750 1410.444, 2143.975 1409.303, 2158 1408.462 C 2235.169 1403.832, 2334.335 1394.006, 2421 1382.401 C 2586.462 1360.245, 2734.247 1329.881, 2878.500 1288.403 C 3040.536 1241.811, 3184.419 1181.909, 3300.277 1112.807 C 3322.807 1099.369, 3363.982 1071.917, 3382.666 1057.876 C 3418.222 1031.157, 3437.691 1014.388, 3466.066 986.042 C 3506.522 945.627, 3532.915 910.695, 3554.183 869.414 C 3564.628 849.142, 3570.321 835.837, 3575.939 818.568 C 3595.783 757.574, 3595.726 695.378, 3575.773 635.528 C 3547.153 549.681, 3479.417 467.126, 3375.950 391.989 C 3196.500 261.675, 2920.853 159.686, 2583 98.599 C 2396.689 64.913, 2191.860 44.585, 1993 40.045 C 1932.698 38.669, 1863.059 38.314, 1814.500 39.135" stroke="none" fill="#6404fc" fill-rule="evenodd"/>
    <path id="spinalcord_box" class="box" d="M 2417.500 3651.040 C 2322.900 3651.406, 2140.650 3652.012, 2012.500 3652.386 C 1884.350 3652.761, 1720.775 3653.260, 1649 3653.496 C 1577.225 3653.732, 1473.172 3654.067, 1417.772 3654.241 C 1337.939 3654.491, 1316.780 3654.820, 1315.772 3655.828 C 1314.751 3656.849, 1314.459 3704.499, 1314.292 3897.300 C 1314.177 4029.410, 1314.327 4139.603, 1314.625 4142.173 C 1315.573 4150.351, 1314.152 4149.955, 1344.500 4150.515 C 1359.350 4150.789, 1476.800 4151.454, 1605.500 4151.994 C 1734.200 4152.534, 1882.700 4153.215, 1935.500 4153.507 C 2225.275 4155.109, 2434.708 4156.018, 2566.494 4156.245 L 2714.487 4156.500 2715.656 4152.939 C 2716.786 4149.495, 2718.818 3910.218, 2719.318 3721.674 C 2719.495 3654.589, 2719.451 3652.812, 2717.559 3651.424 C 2715.391 3649.834, 2725.550 3649.847, 2417.500 3651.040 M 2510.917 3665.399 C 2510.688 3665.618, 2379.325 3666.072, 2219 3666.408 C 1716.565 3667.459, 1321.566 3669.167, 1320.844 3670.292 C 1320.483 3670.854, 1320.137 3775.582, 1320.076 3903.020 C 1319.985 4089.077, 1320.213 4134.923, 1321.232 4135.732 C 1322.068 4136.395, 1392.208 4136.953, 1527 4137.369 C 1917.783 4138.575, 2042.311 4139.085, 2186 4140.068 C 2265.475 4140.613, 2415.828 4141.341, 2520.117 4141.688 L 2709.734 4142.319 2710.364 4107.909 C 2711.374 4052.791, 2713.414 3668.520, 2712.706 3666.676 C 2712.110 3665.123, 2704.676 3665, 2611.698 3665 C 2556.497 3665, 2511.146 3665.179, 2510.917 3665.399" stroke="none" fill="#fc1512" fill-rule="evenodd"/>
    <path id="thalamux_box" class="box" d="M 2283.500 1321.911 C 2278.911 1322.452, 2278.518 1322.705, 2278.718 1325 C 2279.268 1331.290, 2278.911 1948.339, 2278.354 1954.750 C 2277.850 1960.556, 2278.001 1962.012, 2279.112 1962.060 C 2285.498 1962.335, 2405.278 1961.884, 2434 1961.476 C 2454.075 1961.191, 2586.825 1960.248, 2729 1959.380 C 2922.130 1958.200, 2987.810 1957.507, 2988.726 1956.639 C 2989.688 1955.726, 2989.968 1887.532, 2990.026 1639.224 C 2990.067 1465.285, 2989.825 1322.526, 2989.489 1321.982 C 2988.828 1320.913, 2292.573 1320.843, 2283.500 1321.911 M 2401.893 1327.750 L 2287.287 1328.008 2286.651 1362.754 C 2286.147 1390.299, 2285.436 1937.207, 2285.885 1952.412 L 2286 1956.325 2374.250 1955.681 C 2422.787 1955.326, 2579.500 1954.289, 2722.500 1953.375 C 2865.500 1952.461, 2982.725 1951.515, 2983 1951.273 C 2983.774 1950.592, 2984.215 1363.752, 2983.456 1344.250 L 2982.785 1327 2749.643 1327.246 C 2621.414 1327.381, 2464.927 1327.608, 2401.893 1327.750" stroke="none" fill="#7ad7c4" fill-rule="evenodd"/>
    <path id="thalamux_content" class="content structure" d="M 2616 1328.611 C 2495.083 1335.593, 2390.463 1394.968, 2334.274 1488.500 C 2289.901 1562.362, 2281.235 1651.737, 2310.504 1733.639 C 2319.866 1759.836, 2338.635 1794.176, 2356.251 1817.337 C 2412.567 1891.379, 2500.873 1941.893, 2598.500 1955.912 C 2702.547 1970.852, 2806.015 1944.121, 2884 1882.153 C 2895.773 1872.797, 2923.311 1845.396, 2932.392 1834 C 2965.889 1791.965, 2986.816 1743.727, 2994.645 1690.500 C 2997.124 1673.649, 2997.128 1632.397, 2994.652 1615.500 C 2987.681 1567.919, 2972.179 1527.541, 2945.511 1487.500 C 2911.973 1437.146, 2864.630 1396.166, 2807.500 1368.039 C 2766.648 1347.927, 2722.865 1335.390, 2676.436 1330.511 C 2662.136 1329.008, 2627.811 1327.929, 2616 1328.611" stroke="none" fill="#fbec1c" fill-rule="evenodd"/>
    <path id="thal_AN" class="substructure" d="M 2439.131 1389.541 C 2422.302 1393.192, 2403.557 1406.702, 2391.989 1423.516 C 2386.856 1430.977, 2380.103 1446.191, 2377.250 1456.723 C 2374.851 1465.579, 2374.604 1468.148, 2374.630 1484 C 2374.654 1498.833, 2374.992 1502.719, 2376.845 1509.500 C 2384.071 1535.936, 2401.362 1555.956, 2423.124 1563.084 C 2433.505 1566.484, 2450.326 1566.521, 2460.500 1563.165 C 2492.152 1552.725, 2515.124 1521.646, 2520.036 1482.620 C 2523.156 1457.831, 2516.732 1431.956, 2502.931 1413.725 C 2487.631 1393.511, 2463.313 1384.294, 2439.131 1389.541" stroke="none" fill="#ff8400" fill-rule="evenodd"/>
    <path id="thal_VA" class="substructure" d="M 2380.202 1574.022 C 2356.791 1580.156, 2337.387 1600.277, 2329.955 1626.128 C 2326.921 1636.683, 2326.234 1654.114, 2328.427 1664.934 C 2336.034 1702.479, 2364.593 1728, 2399 1728 C 2431.509 1728, 2458.878 1704.787, 2467.137 1670.209 C 2468.902 1662.821, 2469.138 1659.452, 2468.692 1648 C 2468.093 1632.614, 2466.596 1626.108, 2460.940 1614.326 C 2445.666 1582.505, 2411.989 1565.694, 2380.202 1574.022" stroke="none" fill="#f9918d" fill-rule="evenodd"/>
    <path id="thal_VL" class="substructure" d="M 2531.317 1619.503 C 2499.364 1626.449, 2468.117 1664.633, 2457.730 1709.429 C 2454.578 1723.020, 2454.598 1749.348, 2457.768 1760.309 C 2463.175 1779.007, 2473.748 1791.435, 2488.428 1796.350 C 2494.485 1798.378, 2507.521 1798.503, 2514.661 1796.602 C 2547.876 1787.758, 2579.895 1746.194, 2587.569 1701.961 C 2589.926 1688.368, 2589.149 1664.250, 2586.038 1654.500 C 2582.774 1644.270, 2578.522 1636.876, 2572.290 1630.594 C 2561.410 1619.626, 2547.754 1615.930, 2531.317 1619.503" stroke="none" fill="#ffbeb3" fill-rule="evenodd"/>
    <path id="thal_LD" class="substructure" d="M 2563 1528.002 C 2541.992 1530.864, 2527.651 1538.038, 2522.574 1548.227 C 2521.158 1551.068, 2520 1554.812, 2520 1556.547 C 2520 1573.134, 2542.424 1590.217, 2575 1598.447 C 2590.285 1602.308, 2599.484 1603.413, 2616.500 1603.432 C 2646.153 1603.465, 2666.814 1596.116, 2673.677 1583.093 C 2687.080 1557.661, 2640.834 1528.991, 2584 1527.498 C 2576.025 1527.288, 2566.575 1527.515, 2563 1528.002" stroke="none" fill="#9fdcc6" fill-rule="evenodd"/>
    <path id="thal_VPL" class="substructure" d="M 2651.539 1670.067 C 2624.787 1674.166, 2602.853 1689.456, 2591.563 1711.876 C 2571.403 1751.908, 2594.504 1799.896, 2639.864 1812.214 C 2650.293 1815.046, 2670.324 1815.259, 2681 1812.651 C 2690.364 1810.364, 2704.613 1803.304, 2712.248 1797.169 C 2724.311 1787.476, 2734.594 1771.319, 2737.496 1757.500 C 2742.693 1732.746, 2735.618 1709.344, 2717.634 1691.801 C 2704.530 1679.018, 2685.641 1670.692, 2667.500 1669.700 C 2662 1669.400, 2654.818 1669.565, 2651.539 1670.067" stroke="none" fill="#afb5d2" fill-rule="evenodd"/>
    <path id="thal_DM" class="substructure" d="M 2711.500 1365.042 C 2688.018 1367.703, 2664.096 1374.501, 2646.544 1383.500 C 2633.831 1390.019, 2626.277 1395.653, 2618.087 1404.728 C 2606.506 1417.559, 2601.427 1430.979, 2602.276 1446.500 C 2603.128 1462.059, 2608.998 1474.452, 2622.124 1488.399 C 2663.571 1532.441, 2754.113 1551.280, 2826.561 1530.937 C 2849.352 1524.538, 2866.858 1514.990, 2880.535 1501.500 C 2895.081 1487.154, 2900.816 1473.546, 2899.713 1456 C 2898.713 1440.108, 2891.990 1426.884, 2877.560 1412.419 C 2854.384 1389.190, 2819.673 1373.735, 2774.297 1366.442 C 2762.680 1364.575, 2723.356 1363.698, 2711.500 1365.042" stroke="none" fill="#ff4c66" fill-rule="evenodd"/>
    <path id="thal_LP" class="substructure" d="M 2713.500 1541.938 C 2689.489 1547.810, 2669.787 1587.386, 2672.399 1624.500 C 2673.955 1646.614, 2681.233 1662.078, 2693.356 1669.031 C 2700.270 1672.997, 2709.885 1673.198, 2717.737 1669.542 C 2731.465 1663.151, 2743.816 1645.157, 2750.044 1622.477 C 2753.108 1611.320, 2753.905 1587.687, 2751.597 1576.457 C 2748.370 1560.760, 2739.701 1547.491, 2729.709 1542.955 C 2725.436 1541.015, 2718.942 1540.608, 2713.500 1541.938" stroke="none" fill="#b2d2f1" fill-rule="evenodd"/>
    <path id="thal_Pulv" class="substructure" d="M 2866 1590.086 C 2863.525 1590.564, 2857.688 1592.835, 2853.028 1595.135 C 2846.220 1598.496, 2842.764 1601.102, 2835.428 1608.408 C 2813.150 1630.598, 2798.033 1663.871, 2790.862 1706.500 C 2788.238 1722.096, 2787.689 1754.346, 2789.822 1767.500 C 2794.568 1796.754, 2805.401 1818.152, 2820.791 1828.669 C 2829.319 1834.497, 2836.058 1836.337, 2846.962 1835.816 C 2854.328 1835.464, 2856.732 1834.871, 2863.060 1831.845 C 2877.465 1824.958, 2888.367 1814.699, 2899.556 1797.500 C 2928.859 1752.460, 2939.150 1681.824, 2923.344 1634.233 C 2918.868 1620.757, 2913.351 1611.230, 2905.497 1603.416 C 2893.405 1591.385, 2880.994 1587.196, 2866 1590.086" stroke="none" fill="#46c695" fill-rule="evenodd"/>
    <path id="thal_VPN" class="substructure" d="M 2762.500 1753.045 C 2748.929 1757.405, 2735.837 1779.664, 2735.750 1798.525 C 2735.684 1812.794, 2740.891 1819.988, 2751.290 1819.996 C 2757.564 1820.001, 2762.312 1817.478, 2768.661 1810.765 C 2779.379 1799.433, 2785.604 1780.474, 2783.031 1767 C 2780.895 1755.814, 2772.226 1749.921, 2762.500 1753.045" stroke="none" fill="#c5c0de" fill-rule="evenodd"/>
    <path id="thal_MGN" class="substructure" d="M 2926.885 1775.381 C 2919.088 1778.164, 2912.947 1784.530, 2908.281 1794.664 C 2906.153 1799.288, 2905.519 1802.369, 2905.229 1809.500 C 2904.909 1817.383, 2905.151 1819.057, 2907.182 1822.992 C 2913.280 1834.809, 2926.191 1835.111, 2936.724 1823.684 C 2949.708 1809.598, 2951.709 1785.848, 2940.609 1777.568 C 2936.602 1774.578, 2931.439 1773.756, 2926.885 1775.381" stroke="none" fill="#f4c08f" fill-rule="evenodd"/>
    <path id="thal_LGN" class="substructure" d="M 2866.763 1844.462 C 2856.908 1848.218, 2847.363 1858.337, 2842.882 1869.775 C 2841.146 1874.207, 2840.624 1877.646, 2840.570 1885 C 2840.505 1893.845, 2840.714 1894.879, 2843.606 1900 C 2848.094 1907.948, 2854.122 1911.519, 2862.923 1911.445 C 2875.477 1911.339, 2886.773 1902.817, 2893.795 1888.155 C 2899.511 1876.219, 2899.595 1861.218, 2893.994 1852.852 C 2889.515 1846.163, 2884.985 1843.599, 2877.109 1843.293 C 2873.188 1843.141, 2868.980 1843.616, 2866.763 1844.462" stroke="none" fill="#8a72a5" fill-rule="evenodd"/>
    </g>
</svg>
