<svg
    xmlns="http://www.w3.org/2000/svg"
    xmlns:cc="http://web.resource.org/cc/"
    xmlns:dc="http://purl.org/dc/elements/1.1/"
    xmlns:rdf="http://www.w3.org/1999/02/22-rdf-syntax-ns#"
    viewBox="0 0 400 400">
  
  <style type="text/css">
  </style>

    <path id="medulla" class="content structure" d="M 2598.500 2901.067 C 2499.500 2901.426, 2273.150 2901.776, 2095.500 2901.845 L 1772.500 2901.971 1770.096 2904.720 L 1767.692 2907.470 1768.385 2963.985 C 1768.766 2995.068, 1769.490 3051.775, 1769.995 3090 C 1772.286 3263.722, 1772.385 3285.001, 1770.899 3284.987 C 1770.130 3284.980, 1766.575 3284.055, 1763 3282.932 C 1740.009 3275.709, 1705.139 3274.394, 1674.500 3279.595 C 1615.164 3289.668, 1555.542 3322.981, 1519.347 3366.286 C 1447.926 3451.736, 1477.223 3546.776, 1580.500 3564.672 C 1594.461 3567.092, 1628.157 3567.085, 1643.836 3564.659 C 1670.228 3560.577, 1695.418 3552.662, 1720.500 3540.570 C 1749 3526.831, 1768.485 3513.333, 1789.869 3492.515 C 1819.173 3463.987, 1836.998 3433.031, 1842.566 3401 C 1844.770 3388.316, 1844.094 3367.810, 1841.099 3356.500 C 1836.949 3340.834, 1827.849 3325.072, 1815.962 3312.962 L 1810 3306.887 1809.998 3203.694 C 1809.997 3146.937, 1809.698 3062.864, 1809.334 3016.865 L 1808.673 2933.230 1827.086 2932.641 C 1881.133 2930.913, 2445.401 2930.429, 2684.878 2931.906 C 2758.797 2932.362, 2781.362 2932.223, 2781.711 2931.313 C 2782.561 2929.095, 2780.518 2900.662, 2779.500 2900.537 C 2778.950 2900.469, 2697.500 2900.707, 2598.500 2901.067" stroke="none" fill="#f4946c" fill-rule="evenodd"/>
    <path id="pons" class="content structure" d="M 1715.500 2372.393 C 1655.248 2382.320, 1600.041 2425.070, 1558.007 2494.349 C 1510.444 2572.741, 1484.191 2685.125, 1488.825 2790.500 C 1492.618 2876.765, 1509.818 2948.164, 1542.423 3013 C 1596.332 3120.199, 1682.465 3174.590, 1768.719 3155.902 C 1805.511 3147.931, 1839.150 3128.021, 1871.034 3095.345 C 1886.698 3079.292, 1894.436 3069.653, 1907.438 3050 C 1919.954 3031.082, 1926.052 3020.385, 1934.929 3001.781 C 1964.386 2940.045, 1980.510 2873.119, 1985.529 2791.750 L 1986.192 2781 2022.346 2781.040 C 2042.231 2781.061, 2095.400 2781.492, 2140.500 2781.997 C 2185.600 2782.501, 2282.182 2783.232, 2355.127 2783.621 L 2487.754 2784.328 2488.988 2782.023 C 2490.317 2779.539, 2490.340 2764.508, 2489.138 2683.453 C 2488.573 2645.356, 2488.305 2640.109, 2486.805 2637.822 L 2485.109 2635.237 2350.805 2634.964 C 2276.937 2634.813, 2213.575 2634.607, 2210 2634.505 C 2206.425 2634.402, 2151.911 2634.240, 2088.859 2634.143 C 1999.330 2634.006, 1974.002 2633.697, 1973.235 2632.734 C 1972.695 2632.055, 1970.579 2624.750, 1968.533 2616.500 C 1955.308 2563.171, 1931.781 2509.305, 1905.283 2471.689 C 1889.755 2449.645, 1868.559 2426.518, 1851.500 2413.005 C 1827.154 2393.720, 1798.506 2379.678, 1771.500 2373.790 C 1759.802 2371.240, 1727.404 2370.431, 1715.500 2372.393" stroke="none" fill="#e38cbc" fill-rule="evenodd"/>
    <path id="basalganglia_box" class="box" d="M 959.552 1327.250 C 958.702 1330.009, 958.003 1959.884, 958.850 1960.407 C 959.341 1960.711, 1061.388 1961.207, 1185.622 1961.511 C 1309.855 1961.814, 1467.172 1962.226, 1535.215 1962.426 C 1627.314 1962.697, 1659.160 1962.497, 1659.830 1961.645 C 1660.357 1960.975, 1660.976 1829.699, 1661.321 1645.336 C 1661.824 1377.159, 1661.705 1330, 1660.523 1329.019 C 1659.487 1328.160, 1580.766 1327.639, 1350.317 1326.970 C 937.821 1325.771, 960.013 1325.755, 959.552 1327.250 M 966.538 1333.287 C 966.334 1333.954, 965.894 1474.152, 965.561 1644.838 L 964.956 1955.176 977.228 1954.844 C 983.978 1954.662, 1138.938 1954.917, 1321.584 1955.411 L 1653.668 1956.310 1654.333 1844.405 C 1654.699 1782.857, 1654.999 1642.893, 1655 1533.373 L 1655 1334.247 1453.250 1333.642 C 1342.287 1333.309, 1187.467 1332.820, 1109.204 1332.556 C 998.223 1332.180, 966.827 1332.341, 966.538 1333.287" stroke="none" fill="#e5c40c" fill-rule="evenodd"/>
    <path id="basalganglia_content" class="content" d="M 1310 1347.617 C 1306.425 1347.822, 1296.709 1348.665, 1288.409 1349.490 C 1164.277 1361.825, 1055.010 1433.167, 1005.048 1534.500 C 975.438 1594.553, 968.574 1656.038, 984.506 1718.500 C 993.333 1753.106, 1011.220 1788.165, 1035.272 1818 C 1053.233 1840.280, 1082.164 1865.674, 1108.164 1881.983 C 1179.673 1926.837, 1274.337 1943.732, 1362.805 1927.432 C 1451.011 1911.179, 1527.688 1867.101, 1580.133 1802.500 C 1631.765 1738.900, 1654.069 1659.734, 1641.411 1585 C 1637.225 1560.286, 1629.984 1537.989, 1618.514 1514.500 C 1605.369 1487.582, 1591.026 1467.347, 1569 1444.648 C 1517.049 1391.109, 1445.953 1358.013, 1364.710 1349.551 C 1349.796 1347.997, 1321.053 1346.981, 1310 1347.617" stroke="none" fill="#ec74f4" fill-rule="evenodd"/>
    <path id="brainstem_box" class="box" d="M 1455.323 2031.646 C 1454.125 2031.907, 1452.629 2032.742, 1451.998 2033.503 C 1450.694 2035.073, 1450.481 2814.616, 1451.652 3297.832 L 1452.321 3574.164 1454.733 3575.745 C 1456.906 3577.169, 1466.150 3577.256, 1548.322 3576.628 C 1598.470 3576.244, 1761.225 3575.266, 1910 3574.455 C 2401.878 3571.771, 2500.575 3571.100, 2502.324 3570.429 C 2503.276 3570.064, 2504.486 3568.961, 2505.012 3567.978 C 2505.606 3566.867, 2506.339 3458.967, 2506.951 3282.346 C 2507.492 3126.231, 2508.182 2969.250, 2508.484 2933.500 C 2508.786 2897.750, 2509.468 2713.250, 2509.998 2523.500 C 2510.528 2333.750, 2511.227 2146.976, 2511.551 2108.447 C 2512.112 2041.677, 2512.055 2038.294, 2510.320 2036.254 L 2508.500 2034.114 2321 2033.571 C 2217.875 2033.273, 2032.025 2032.797, 1908 2032.513 C 1783.975 2032.229, 1631.875 2031.811, 1570 2031.584 C 1508.125 2031.358, 1456.520 2031.385, 1455.323 2031.646 M 1460.146 2040.889 C 1459.008 2041.609, 1458.911 2163.561, 1459.538 2804.459 C 1460.189 3470.597, 1460.467 3567.242, 1461.738 3567.730 C 1463.338 3568.344, 1932.411 3566.302, 1975 3565.496 C 1989.575 3565.220, 2112.650 3564.497, 2248.500 3563.890 C 2454.622 3562.968, 2495.680 3562.560, 2496.587 3561.425 C 2497.655 3560.087, 2497.803 3529.417, 2499.505 2953.500 C 2499.781 2860, 2500.228 2760.550, 2500.497 2732.500 C 2501.176 2661.847, 2503.252 2054.707, 2502.837 2048.273 L 2502.500 2043.046 2301.500 2042.478 C 2190.950 2042.166, 2004.682 2041.480, 1887.571 2040.955 C 1625.445 2039.779, 1461.937 2039.754, 1460.146 2040.889" stroke="none" fill="#e6539c" fill-rule="evenodd"/>
    <path id="cerebellum_box" class="box" d="M 2827.046 2240.750 C 2749.279 2240.923, 2710.252 2241.348, 2709.568 2242.032 C 2708.044 2243.556, 2708.792 3155.016, 2710.318 3156.871 C 2711.271 3158.030, 2771.140 3158.191, 3095.973 3157.908 C 3307.463 3157.724, 3481.287 3157.204, 3482.250 3156.752 C 3483.913 3155.971, 3484 3133.199, 3484 2699.165 C 3484 2345.237, 3483.730 2242.130, 3482.800 2241.200 C 3481.647 2240.047, 3223.807 2239.870, 2827.046 2240.750 M 2969.249 2248.752 L 2714.998 2249.004 2715.249 2699.252 L 2715.500 3149.500 2919 3149.429 C 3030.925 3149.390, 3202.492 3149.277, 3300.261 3149.179 L 3478.022 3149 3477.965 2710.250 C 3477.934 2468.938, 3477.636 2266.191, 3477.303 2259.702 L 3476.698 2247.904 3350.099 2248.202 C 3280.470 2248.366, 3109.087 2248.613, 2969.249 2248.752" stroke="none" fill="#f49979" fill-rule="evenodd"/>
            

</svg>
